<?xml version="1.0" encoding="utf-8"?>
<!-- Generator: Adobe Illustrator 28.0.0, SVG Export Plug-In . SVG Version: 6.00 Build 0)  -->
<svg version="1.1" id="matrix" xmlns="http://www.w3.org/2000/svg" xmlns:xlink="http://www.w3.org/1999/xlink" x="0px" y="0px"
	 viewBox="0 0 210 210" style="enable-background:new 0 0 210 210;" xml:space="preserve">
<style type="text/css">
	.st0{fill:none;stroke:#4F4F4F;stroke-miterlimit:10;}
	.st1{fill:none;stroke:#4F4F4F;stroke-width:4;stroke-miterlimit:10;}
	.st2{fill:#9759E3;}
	.st3{fill:#2F72F4;}
	.st4{fill:#27AFFB;}
	.st5{fill:#FFFFFF;}
	.st6{font-family:'MyriadPro-Regular';}
	.st7{font-size:6.797px;}
</style>
<g id="background">
	<circle class="st0" cx="105.2" cy="104.9" r="97.8"/>
	<rect x="44.1" y="43.9" class="st0" width="122.2" height="122.2"/>
	
		<rect x="44.1" y="43.9" transform="matrix(0.7071 -0.7071 0.7071 0.7071 -43.4088 105.0913)" class="st0" width="122.2" height="122.2"/>
	<line class="st0" x1="18.8" y1="104.9" x2="191.5" y2="104.9"/>
	<line class="st0" x1="166.6" y1="43.5" x2="43.4" y2="166.7"/>
	<line class="st0" x1="44.1" y1="43.9" x2="166.2" y2="166"/>
	<line class="st1" x1="105.2" y1="18.6" x2="105.2" y2="191.3"/>
</g>
<g id="d">
	<circle id="D1" class="st2" cx="105.2" cy="192.7" r="9"/>
	<circle id="D2" class="st3" cx="105.2" cy="176.1" r="7.1"/>
	<circle id="D3" class="st4" cx="105.2" cy="161.6" r="6.4"/>
</g>
<g id="c">
	<circle id="C1" class="st2" cx="192.5" cy="105.1" r="9"/>
	<circle id="C2" class="st3" cx="175.9" cy="105.1" r="7.1"/>
	<circle id="C3" class="st4" cx="161.5" cy="105.1" r="6.4"/>
</g>
<g id="b">
	<circle id="B1" class="st2" cx="105.2" cy="17.5" r="9"/>
	<circle id="B2" class="st3" cx="105.2" cy="34" r="7.1"/>
	<circle id="B3" class="st4" cx="105.2" cy="48.5" r="6.4"/>
</g>
<g id="a">
	<circle id="A1" class="st2" cx="17.5" cy="105.1" r="9"/>
	<circle id="A2" class="st3" cx="34" cy="105.1" r="7.1"/>
	<circle id="A3" class="st4" cx="48.5" cy="105.1" r="6.4"/>
</g>
<text transform="matrix(1 0 0 1 103.0527 194.9229)" class="st5 st6 st7">d</text>
<text transform="matrix(1 0 0 1 191.2412 106.8633)" class="st5 st6 st7">c</text>
<text transform="matrix(1 0 0 1 103.4985 18.9316)" class="st5 st6 st7">b</text>
<text transform="matrix(1 0 0 1 15.1865 107.5049)" class="st5 st6 st7">a</text>
</svg>
